<svg width="256" height="256" viewBox="0 0 256 256" fill="none" xmlns="http://www.w3.org/2000/svg">
  <defs>
    <radialGradient id="bgGlow" cx="0" cy="0" r="1" gradientUnits="userSpaceOnUse" gradientTransform="translate(128 128) rotate(90) scale(128)">
      <stop offset="0" stop-color="#3DD9FF" stop-opacity="0.45"/>
      <stop offset="1" stop-color="#3DD9FF" stop-opacity="0"/>
    </radialGradient>
    <linearGradient id="tube" x1="64" y1="44" x2="196" y2="196" gradientUnits="userSpaceOnUse">
      <stop stop-color="#39D9FF"/>
      <stop offset="1" stop-color="#0A6AE0"/>
    </linearGradient>
    <linearGradient id="deep" x1="72" y1="48" x2="176" y2="176" gradientUnits="userSpaceOnUse">
      <stop stop-color="#1FAEFF"/>
      <stop offset="1" stop-color="#124CB6"/>
    </linearGradient>
    <filter id="soft" x="0" y="0" width="256" height="256" filterUnits="userSpaceOnUse" color-interpolation-filters="sRGB">
      <feGaussianBlur stdDeviation="10"/>
    </filter>
  </defs>

  <circle cx="128" cy="128" r="104" fill="url(#bgGlow)"/>

  <path d="M82 62c0-9 7-16 16-16h14c9 0 16 7 16 16v6c0 9-7 16-16 16h-14c-9 0-16-7-16-16v-6Z" fill="url(#deep)"/>
  <path d="M160 62c0-9 7-16 16-16h14c9 0 16 7 16 16v6c0 9-7 16-16 16h-14c-9 0-16-7-16-16v-6Z" fill="url(#deep)"/>

  <path d="M112 62v28c0 27 17 50 40 58v20c0 15-12 27-27 27h-2c-15 0-27-12-27-27v-4c-39-19-64-58-64-101V62h20v1c0 37 22 70 55 85l9 4v16c0 4 3 7 7 7h2c4 0 7-3 7-7v-34l9-2c25-6 43-28 43-54V62h20v17c0 33-20 61-49 74v15c0 26-21 47-47 47h-2c-26 0-47-21-47-47v-17c-36-20-59-58-59-101V62h20v1c0 37 22 70 55 85l9 4v16c0 4 3 7 7 7h2c4 0 7-3 7-7v-20c-36-9-62-41-62-79V62h20Z" fill="url(#tube)"/>

  <circle cx="188" cy="174" r="34" fill="#0E8EF4"/>
  <circle cx="188" cy="174" r="28" fill="#27CBFF"/>
  <rect x="182" y="158" width="12" height="32" rx="2" fill="white"/>
  <rect x="172" y="168" width="32" height="12" rx="2" fill="white"/>

  <circle cx="188" cy="174" r="50" fill="#25C7FF" fill-opacity="0.16" filter="url(#soft)"/>
</svg>
